<mxfile host="65bd71144e">
    <diagram id="miuuST4mInDflhiUSIYk" name="Flyweight">
        <mxGraphModel dx="1043" dy="1129" grid="1" gridSize="10" guides="1" tooltips="1" connect="1" arrows="1" fold="1" page="1" pageScale="1" pageWidth="1600" pageHeight="900" math="0" shadow="0">
            <root>
                <mxCell id="Xzvi7pwuM2kXg185UqMz-0"/>
                <mxCell id="Xzvi7pwuM2kXg185UqMz-1" parent="Xzvi7pwuM2kXg185UqMz-0"/>
                <mxCell id="WdD0zhQ3N6mEVGHEbIEM-20" style="html=1;entryX=0;entryY=0.5;entryDx=0;entryDy=0;startArrow=classic;startFill=1;" edge="1" parent="Xzvi7pwuM2kXg185UqMz-1" source="WdD0zhQ3N6mEVGHEbIEM-0" target="WdD0zhQ3N6mEVGHEbIEM-5">
                    <mxGeometry relative="1" as="geometry">
                        <mxPoint x="640" y="100" as="targetPoint"/>
                    </mxGeometry>
                </mxCell>
                <mxCell id="WdD0zhQ3N6mEVGHEbIEM-0" value="Flyweight Factory" style="swimlane;fontStyle=1;childLayout=stackLayout;horizontal=1;startSize=30;horizontalStack=0;resizeParent=1;resizeParentMax=0;resizeLast=0;collapsible=1;marginBottom=0;fillColor=#0050ef;fontColor=#ffffff;strokeColor=#001DBC;fontSize=16;fontFamily=Poppins;fontSource=https%3A%2F%2Ffonts.googleapis.com%2Fcss%3Ffamily%3DPoppins;" vertex="1" parent="Xzvi7pwuM2kXg185UqMz-1">
                    <mxGeometry x="290" y="70" width="180" height="60" as="geometry"/>
                </mxCell>
                <mxCell id="WdD0zhQ3N6mEVGHEbIEM-1" value="+ getFlyweight( key )" style="text;strokeColor=none;fillColor=none;align=left;verticalAlign=middle;spacingLeft=4;spacingRight=4;overflow=hidden;points=[[0,0.5],[1,0.5]];portConstraint=eastwest;rotatable=0;fontSize=12;fontFamily=Poppins;fontSource=https%3A%2F%2Ffonts.googleapis.com%2Fcss%3Ffamily%3DPoppins;" vertex="1" parent="WdD0zhQ3N6mEVGHEbIEM-0">
                    <mxGeometry y="30" width="180" height="30" as="geometry"/>
                </mxCell>
                <mxCell id="WdD0zhQ3N6mEVGHEbIEM-7" style="edgeStyle=none;html=1;entryX=0.5;entryY=1.1;entryDx=0;entryDy=0;entryPerimeter=0;" edge="1" parent="Xzvi7pwuM2kXg185UqMz-1" source="WdD0zhQ3N6mEVGHEbIEM-3" target="WdD0zhQ3N6mEVGHEbIEM-1">
                    <mxGeometry relative="1" as="geometry"/>
                </mxCell>
                <mxCell id="WdD0zhQ3N6mEVGHEbIEM-15" style="edgeStyle=orthogonalEdgeStyle;html=1;entryX=0;entryY=0.5;entryDx=0;entryDy=0;" edge="1" parent="Xzvi7pwuM2kXg185UqMz-1" source="WdD0zhQ3N6mEVGHEbIEM-3" target="WdD0zhQ3N6mEVGHEbIEM-9">
                    <mxGeometry relative="1" as="geometry"/>
                </mxCell>
                <mxCell id="WdD0zhQ3N6mEVGHEbIEM-16" style="edgeStyle=orthogonalEdgeStyle;html=1;entryX=0;entryY=0.5;entryDx=0;entryDy=0;" edge="1" parent="Xzvi7pwuM2kXg185UqMz-1" source="WdD0zhQ3N6mEVGHEbIEM-3" target="WdD0zhQ3N6mEVGHEbIEM-11">
                    <mxGeometry relative="1" as="geometry">
                        <Array as="points">
                            <mxPoint x="760" y="300"/>
                            <mxPoint x="760" y="275"/>
                        </Array>
                    </mxGeometry>
                </mxCell>
                <mxCell id="WdD0zhQ3N6mEVGHEbIEM-3" value="Client" style="swimlane;fontStyle=1;childLayout=stackLayout;horizontal=1;startSize=30;horizontalStack=0;resizeParent=1;resizeParentMax=0;resizeLast=0;collapsible=1;marginBottom=0;fillColor=#0050ef;fontColor=#ffffff;strokeColor=#001DBC;fontSize=16;fontFamily=Poppins;fontSource=https%3A%2F%2Ffonts.googleapis.com%2Fcss%3Ffamily%3DPoppins;" vertex="1" parent="Xzvi7pwuM2kXg185UqMz-1">
                    <mxGeometry x="290" y="270" width="180" height="60" as="geometry"/>
                </mxCell>
                <mxCell id="WdD0zhQ3N6mEVGHEbIEM-4" value="+ component" style="text;strokeColor=none;fillColor=none;align=left;verticalAlign=middle;spacingLeft=4;spacingRight=4;overflow=hidden;points=[[0,0.5],[1,0.5]];portConstraint=eastwest;rotatable=0;fontSize=12;fontFamily=Poppins;fontSource=https%3A%2F%2Ffonts.googleapis.com%2Fcss%3Ffamily%3DPoppins;" vertex="1" parent="WdD0zhQ3N6mEVGHEbIEM-3">
                    <mxGeometry y="30" width="180" height="30" as="geometry"/>
                </mxCell>
                <mxCell id="WdD0zhQ3N6mEVGHEbIEM-5" value="Flyweight" style="swimlane;fontStyle=1;childLayout=stackLayout;horizontal=1;startSize=30;horizontalStack=0;resizeParent=1;resizeParentMax=0;resizeLast=0;collapsible=1;marginBottom=0;fillColor=#0050ef;fontColor=#ffffff;strokeColor=#001DBC;fontSize=16;fontFamily=Poppins;fontSource=https%3A%2F%2Ffonts.googleapis.com%2Fcss%3Ffamily%3DPoppins;" vertex="1" parent="Xzvi7pwuM2kXg185UqMz-1">
                    <mxGeometry x="650" y="70" width="190" height="60" as="geometry"/>
                </mxCell>
                <mxCell id="WdD0zhQ3N6mEVGHEbIEM-6" value="+ operation ( instrinsic state)" style="text;strokeColor=none;fillColor=none;align=left;verticalAlign=middle;spacingLeft=4;spacingRight=4;overflow=hidden;points=[[0,0.5],[1,0.5]];portConstraint=eastwest;rotatable=0;fontSize=12;fontFamily=Poppins;fontSource=https%3A%2F%2Ffonts.googleapis.com%2Fcss%3Ffamily%3DPoppins;" vertex="1" parent="WdD0zhQ3N6mEVGHEbIEM-5">
                    <mxGeometry y="30" width="190" height="30" as="geometry"/>
                </mxCell>
                <mxCell id="WdD0zhQ3N6mEVGHEbIEM-17" style="edgeStyle=orthogonalEdgeStyle;html=1;exitX=0.5;exitY=0;exitDx=0;exitDy=0;" edge="1" parent="Xzvi7pwuM2kXg185UqMz-1" source="WdD0zhQ3N6mEVGHEbIEM-8">
                    <mxGeometry relative="1" as="geometry">
                        <mxPoint x="740" y="130" as="targetPoint"/>
                    </mxGeometry>
                </mxCell>
                <mxCell id="WdD0zhQ3N6mEVGHEbIEM-8" value="Concrete Flyweight" style="swimlane;fontStyle=1;childLayout=stackLayout;horizontal=1;startSize=30;horizontalStack=0;resizeParent=1;resizeParentMax=0;resizeLast=0;collapsible=1;marginBottom=0;fillColor=#0050ef;fontColor=#ffffff;strokeColor=#001DBC;fontSize=16;fontFamily=Poppins;fontSource=https%3A%2F%2Ffonts.googleapis.com%2Fcss%3Ffamily%3DPoppins;" vertex="1" parent="Xzvi7pwuM2kXg185UqMz-1">
                    <mxGeometry x="540" y="210" width="190" height="60" as="geometry"/>
                </mxCell>
                <mxCell id="WdD0zhQ3N6mEVGHEbIEM-9" value="+ operation ( instrinsic state)" style="text;strokeColor=none;fillColor=none;align=left;verticalAlign=middle;spacingLeft=4;spacingRight=4;overflow=hidden;points=[[0,0.5],[1,0.5]];portConstraint=eastwest;rotatable=0;fontSize=12;fontFamily=Poppins;fontSource=https%3A%2F%2Ffonts.googleapis.com%2Fcss%3Ffamily%3DPoppins;" vertex="1" parent="WdD0zhQ3N6mEVGHEbIEM-8">
                    <mxGeometry y="30" width="190" height="30" as="geometry"/>
                </mxCell>
                <mxCell id="WdD0zhQ3N6mEVGHEbIEM-18" style="edgeStyle=orthogonalEdgeStyle;html=1;" edge="1" parent="Xzvi7pwuM2kXg185UqMz-1" source="WdD0zhQ3N6mEVGHEbIEM-10">
                    <mxGeometry relative="1" as="geometry">
                        <mxPoint x="740" y="130" as="targetPoint"/>
                        <Array as="points">
                            <mxPoint x="890" y="170"/>
                            <mxPoint x="740" y="170"/>
                        </Array>
                    </mxGeometry>
                </mxCell>
                <mxCell id="WdD0zhQ3N6mEVGHEbIEM-10" value="Unshared Concrete&#10;Flyweight" style="swimlane;fontStyle=1;childLayout=stackLayout;horizontal=1;startSize=50;horizontalStack=0;resizeParent=1;resizeParentMax=0;resizeLast=0;collapsible=1;marginBottom=0;fillColor=#0050ef;fontColor=#ffffff;strokeColor=#001DBC;fontSize=16;fontFamily=Poppins;fontSource=https%3A%2F%2Ffonts.googleapis.com%2Fcss%3Ffamily%3DPoppins;" vertex="1" parent="Xzvi7pwuM2kXg185UqMz-1">
                    <mxGeometry x="790" y="210" width="200" height="80" as="geometry"/>
                </mxCell>
                <mxCell id="WdD0zhQ3N6mEVGHEbIEM-11" value="+ operation ( instrinsic state)" style="text;strokeColor=none;fillColor=none;align=left;verticalAlign=middle;spacingLeft=4;spacingRight=4;overflow=hidden;points=[[0,0.5],[1,0.5]];portConstraint=eastwest;rotatable=0;fontSize=12;fontFamily=Poppins;fontSource=https%3A%2F%2Ffonts.googleapis.com%2Fcss%3Ffamily%3DPoppins;" vertex="1" parent="WdD0zhQ3N6mEVGHEbIEM-10">
                    <mxGeometry y="50" width="200" height="30" as="geometry"/>
                </mxCell>
                <mxCell id="WdD0zhQ3N6mEVGHEbIEM-22" value="The Flyweight pool" style="text;html=1;resizable=0;autosize=1;align=center;verticalAlign=middle;points=[];fillColor=none;strokeColor=none;rounded=0;" vertex="1" parent="Xzvi7pwuM2kXg185UqMz-1">
                    <mxGeometry x="500" y="70" width="120" height="20" as="geometry"/>
                </mxCell>
            </root>
        </mxGraphModel>
    </diagram>
</mxfile>